# xmcd
#
# Track frame offsets:
#	150
#	11127
#	22973
#	34929
#	45112
#	54118
#	63293
#	74294
#	85937
#	95794
#	104704
#	115652
#	124717
#	134354
#	147956
#	160637
#	169475
#	181130
#	192137
#	203553
#	215231
#	225799
#	239088
#	248074
#	259541
#	272981
#	283398
#	294764
#	303939
#	316500
#	327097
#	335529
#
# Disc length: 4650 seconds
#
# Revision: 1
# Processed by: cddbd v1.5.2PL0 Copyright (c) Steve Scherf et al.
# Submitted via: EZCDAudioConverter 7.1.1.1
#
DISCID=c5122820
DTITLE=Various Artist - Rockin' Hillbilly - vol. 07
DYEAR=1900
DGENRE=Country
TTITLE0=Joe 'Cannonball' Lewis - You've Been Honky Tonkin'
TTITLE1=Autry Inman - Double Crossed
TTITLE2=Jimmy Key - I'll Never Make A Farmer
TTITLE3=Brown Billy Gray - Girls Girls Girls
TTITLE4=Biff Collie - Goodbay Farewell So Long
TTITLE5=Billy Mize - I Saw Her First
TTITLE6=Wynn Stewart - That Just Kills Me
TTITLE7=Howington Brothers - I Got Mine
TTITLE8=Bob Gallion - I Want Her Blues
TTITLE9=Carl Butler - Baby I'm Waitin'
TTITLE10=Skeets McDonald - Smoke Comes Out My Chimmey
TTITLE11=Owen Perry - All Dressed Up With No Place To Go
TTITLE12=Al Terry - No Shrimps Today
TTITLE13=Fairley Holden - From Lexington To Louisville
TTITLE14=Slim Gordon - Free And Easy
TTITLE15=Canadian Playboys - It's Lonely Here Without You
TTITLE16=Cowboy Copas - Look What I Got
TTITLE17=Jack Cardwell - You're Looking For Something
TTITLE18=Paul and Roy - Every Dog Must Have His Day
TTITLE19=Jimmie Ballard - Tappin' Boogie
TTITLE20=Jimmie Thorpe - Strange Feelin'
TTITLE21=Bob Eaton - Virginia On A Saturday Night
TTITLE22=Jimmie Skinner - Where My Sweet Baby Goes
TTITLE23=Jimmie Spear - Turn Me Round
TTITLE24=Tim Dinkins - It's All In A Lifetime
TTITLE25=Red Murrell - Talkin' Blues
TTITLE26=Western Cherokees - Cherokee Steel Guitar
TTITLE27=Tabby West - Texas Millionaire
TTITLE28=Fairley Holden - I'm A Married Man
TTITLE29=Joe Wheeler - A Country Boy Goin' To Town
TTITLE30=Jack Kingston - I'm Just A Fool
TTITLE31=Bobby Lord - No More No More No More
EXTD=
EXTT0=
EXTT1=
EXTT2=
EXTT3=
EXTT4=
EXTT5=
EXTT6=
EXTT7=
EXTT8=
EXTT9=
EXTT10=
EXTT11=
EXTT12=
EXTT13=
EXTT14=
EXTT15=
EXTT16=
EXTT17=
EXTT18=
EXTT19=
EXTT20=
EXTT21=
EXTT22=
EXTT23=
EXTT24=
EXTT25=
EXTT26=
EXTT27=
EXTT28=
EXTT29=
EXTT30=
EXTT31=
PLAYORDER=
